<?xml version="1.0" encoding="utf-8"?>
<svg width="31" height="24" xmlns="http://www.w3.org/2000/svg">
  <path d="M2.8 4.6zm0 .2c-.8 3.3-.6 6.6.6 9.6s3.4 5.6 6.3 7.4c1.4-.2 3-.6 3.9-1l-3-3.4-2 .8-.4-.2c-2.9-1.4-5-6.5-3.8-9.5l.1-.4 2-.8-.2-4.5c-1 .4-2.4 1-3.5 2zm6.8 19c-.3 0-.6-.1-.8-.3-3.3-2-5.8-5-7.2-8.3a17.7 17.7 0 01-.7-11c.1-.4.3-.7.6-.9 1.4-1 3.2-2 4.4-2.5.5-.2 1-.2 1.5.1.5.3.7.7.7 1.2l.3 5.1C8.5 8 8 8.7 7.3 9L6 9.5c-.5 2 1 5.4 2.6 6.6l1.2-.5c.8-.3 1.6-.1 2.1.5l3.4 3.9c.3.4.4.8.3 1.3-.1.5-.5 1-1 1.2a21.7 21.7 0 01-5.1 1.3zm5.8-6v-4a4 4 0 01-3-3.7V3.9a4 4 0 014-3.9h10.5a4 4 0 014 4v6a4 4 0 01-4 4h-5.2l-6.3 3.9zm1-15.9a2 2 0 00-2 2v6.2c0 1 .8 2 2 2h.9v2.4l3.9-2.4h5.7a2 2 0 002-2V3.9a2 2 0 00-2-2H16.4z" fill-rule="evenodd" style="stroke: rgb(176, 54, 0); fill: rgb(176, 54, 0);"/>
</svg>