<?xml version="1.0" encoding="utf-8"?>
<svg width="27" height="23" xmlns="http://www.w3.org/2000/svg">
  <defs>
    <path id="a" d="M26.8 15.6V.3H0v15.3h26.8z"/>
    <path id="c" d="M12.6 13H0V.8h12.5V13z"/>
  </defs>
  <g fill="none" fill-rule="evenodd">
    <g>
      <mask id="b" fill="#fff">
        <path d="M26.8 15.6V.3H0v15.3h26.8z" transform="matrix(1, 0, 0, 1, 0, 0)"/>
      </mask>
      <path d="M8.4 8.6a3 3 0 01-3.1-1.4h.3c.4 0 .6-.3.6-.6 0-.4-.2-.6-.5-.6H4.9a3 3 0 016-.9 3 3 0 01-2.5 3.5zm18.4-5.1L26.4 1 12.8 3.5A5.4 5.4 0 006.9.4C4 .9 2 3.7 2.5 6.6v.1a5 5 0 00-2 2 3.6 3.6 0 000 3.8c1.3 1.8 3.1 2 5 2.1.9 0 1.7.2 2.6.3.1.4.5.7 1 .7.6 0 1-.4 1-1s-.4-1-1-1a1 1 0 00-.7.2l-2.8-.4c-1.8-.1-3.1-.2-4-1.6-.5-.6-.5-1.6 0-2.5.3-.6.8-1 1.3-1.4a5.4 5.4 0 0010.4-2l6.5-1.2.5 2.3 2.3-.4-.3-1.8 1.2-.2.3 1.8 2.4-.4-.4-2.4 1-.1z" mask="url(#b)" style="stroke: rgb(176, 54, 0); fill: rgb(176, 54, 0);"/>
    </g>
    <path d="M13.6 13c-1.1-.2-2.2 1-2.5 2.7-.3 1.6.3 3.1 1.4 3.3 1 .2 2.1-5.8 1-6" style="stroke: rgb(176, 54, 0); fill: rgb(176, 54, 0);"/>
    <g transform="translate(14 10)">
      <mask id="d" fill="#fff">
        <path d="M12.6 13H0V.8h12.5V13z" transform="matrix(1, 0, 0, 1, 0, 0)"/>
      </mask>
      <path d="M7.7 5c2-.4 2.4-1.6 2.5-2.5-.6-.5-.6-1-1.5-1.7C5.3 5.6 4 2.6 1.2 3.3 1.7 5 1 8.5.1 9.4c1.2 2 7.7 2.8 8.7 3.6l.1-.2C8.2 11.6 5 11 4 10c2.6 1.2 5.4 1.3 6.3 1 2.4-1.7 2.8-4.6 2-6.3-1.4.3-2.5.4-4.5.2" mask="url(#d)" style="stroke: rgb(176, 54, 0); fill: rgb(176, 54, 0);"/>
    </g>
  </g>
</svg>