<?xml version="1.0" encoding="UTF-8"?>
<!DOCTYPE svg PUBLIC "-//W3C//DTD SVG 1.1//EN" "http://www.w3.org/Graphics/SVG/1.1/DTD/svg11.dtd">
<svg xmlns="http://www.w3.org/2000/svg" version="1.1" width="920px" height="422px" style="shape-rendering:geometricPrecision; text-rendering:geometricPrecision; image-rendering:optimizeQuality; fill-rule:evenodd; clip-rule:evenodd" xmlns:xlink="http://www.w3.org/1999/xlink">
<g><path style="opacity:0.967" fill="#af3600" d="M 456.5,-0.5 C 458.5,-0.5 460.5,-0.5 462.5,-0.5C 465.851,0.670196 469.185,2.1702 472.5,4C 505.673,33.1327 539.173,61.9661 573,90.5C 574.248,66.8619 574.915,43.1953 575,19.5C 574.294,9.84337 578.461,3.6767 587.5,1C 594.013,0.827935 600.347,0.327935 606.5,-0.5C 643.5,-0.5 680.5,-0.5 717.5,-0.5C 720.462,2.96414 723.629,6.29747 727,9.5C 727.333,81.5 727.667,153.5 728,225.5C 783.896,275.068 840.063,324.235 896.5,373C 904.369,380.702 912.036,388.535 919.5,396.5C 919.5,401.167 919.5,405.833 919.5,410.5C 916.753,415.582 912.753,419.249 907.5,421.5C 902.833,421.5 898.167,421.5 893.5,421.5C 887.735,417.583 882.068,413.416 876.5,409C 817.167,357 757.833,305 698.5,253C 695.067,249.958 692.234,246.458 690,242.5C 689.5,174.501 689.333,106.501 689.5,38.5C 664.167,38.5 638.833,38.5 613.5,38.5C 613.833,73.8396 613.5,109.173 612.5,144.5C 608.981,147.854 605.314,151.02 601.5,154C 595.655,156.248 589.988,155.915 584.5,153C 542.753,117.48 501.086,81.9797 459.5,46.5C 329.438,158.077 200.104,270.577 71.5,384C 56.2681,396.743 40.9348,409.243 25.5,421.5C 21.1667,421.5 16.8333,421.5 12.5,421.5C 10.2585,420.379 7.92521,419.213 5.5,418C 3.24806,415.264 1.24806,412.431 -0.5,409.5C -0.5,405.167 -0.5,400.833 -0.5,396.5C 6.32134,387.845 13.988,380.012 22.5,373C 163.808,250.029 305.141,127.029 446.5,4C 449.815,2.1702 453.149,0.670196 456.5,-0.5 Z"/></g>
</svg>
