<?xml version="1.0" encoding="utf-8"?>
<svg width="17" height="26" xmlns="http://www.w3.org/2000/svg">
  <defs>
    <path id="a" d="M8.5 0H17v26H0V0h8.5z"/>
  </defs>
  <g fill="none" fill-rule="evenodd">
    <g>
      <mask id="b" fill="#fff">
        <path d="M8.5 0H17v26H0V0h8.5z" transform="matrix(1, 0, 0, 1, 0, 0)"/>
      </mask>
      <path d="M13.3 24H3.7c-1 0-1.7-.7-1.7-1.7V6h13v16.3c0 1-.7 1.7-1.7 1.7M3.7 2h9.6c1 0 1.7.7 1.7 1.7V5H2V3.7C2 2.7 2.7 2 3.7 2m9.6-2H3.7C1.7 0 0 1.6 0 3.7v18.6c0 2 1.6 3.7 3.7 3.7h9.6c2 0 3.7-1.6 3.7-3.7V3.7c0-2-1.6-3.7-3.7-3.7" mask="url(#b)" style="stroke: rgb(176, 54, 0); fill: rgb(176, 54, 0);"/>
    </g>
    <path d="M8.5 21.8a1.3 1.3 0 110-2.6 1.3 1.3 0 010 2.6m0-3.6a2.3 2.3 0 100 4.6 2.3 2.3 0 000-4.6" style="stroke: rgb(176, 54, 0); fill: rgb(176, 54, 0);"/>
  </g>
</svg>