<?xml version="1.0" encoding="utf-8"?>
<svg width="32" height="30" xmlns="http://www.w3.org/2000/svg">
  <g fill="#1C2B37" fill-rule="evenodd">
    <path d="M29.8 19.4a6 6 0 01-.6 2c-.4.8-.7 1.1-1 1.3h-.5l-.5-.2a1 1 0 00-1.1.1c-.7.7-1.5 1.2-2.4 1.6a1 1 0 00-.6 1l.2 1.8-2.3.5-.8-2a1 1 0 00-1.4-.4c-1.8 1-3.9 1.2-6 .6a1 1 0 00-1.1.4l-1 1.4-2.2-1 .6-2.1c0-.4 0-.7-.3-1a8.5 8.5 0 011.8-13.2l1.5.2c1.4 0 2.6-.5 3.5-1.3 1.3 0 2.5.4 3.7 1.1.2.1.4.2.6.1a7.2 7.2 0 013.6.4h.9c.4-.4 1.6-1.2 2.3-1l-.2.6-.5 1.3c-.1.3 0 .7.2 1a7.2 7.2 0 012 4.5c0 .4.2.7.5.8a23.6 23.6 0 011 .7s.2.3.1.8M8 5.2a4.2 4.2 0 018.4 0c0 .7-.2 1.3-.4 1.9a4.2 4.2 0 01-3.5 2.3h-.3c-1 0-1.8-.3-2.6-.9-1-.7-1.6-2-1.6-3.3M2.6 18.3c-.3 0-.4-.2-.5-.3-.4-.3-.5-.8-.4-1.1.1-.2.3-.3.6-.3h.1c.5 0 .6.4.6.7 0 .3-.2.7-.4 1m28-1.5l-.4-.2v-.1c-.3-1.8-1-3.5-2.1-4.9l.2-.5c.3-.7.7-1.4.4-2.2-.2-.4-.5-.8-1-1-1.4-.6-2.8 0-4 .8a9.2 9.2 0 00-3.7-.4c-1-.5-2-.9-3-1l.3-2A5.2 5.2 0 007 5.2c0 1.5.7 2.8 1.8 3.8a10.5 10.5 0 00-4.2 9.2 4 4 0 01-.8.2l.3-1.2c0-1-.6-1.7-1.5-1.7-.8-.1-1.4.2-1.7.9-.3.7 0 1.7.6 2.3l.3.2a3 3 0 01-1.2.3.5.5 0 000 1c1 0 1.8-.4 2.4-.9.4.1 1 0 1.7-.1.3 1.9 1.1 3.6 2.4 5l-.6 2.5c-.2.5 0 1 .5 1.2l3.8 1.7h.4c.3 0 .7 0 .8-.4l1-1.5c2 .4 4 .2 5.8-.5l.7 1.8c.2.4.7.7 1.2.6l4-1c.4 0 .8-.5.7-1l-.1-2 1.7-1.1c.9.3 1.8.2 2.5-.3.6-.4 1.1-1 1.6-2 .4-.9.7-1.9.8-2.7.2-1.8-.7-2.6-1.2-2.8" style="stroke: rgb(176, 54, 0); fill: rgb(176, 54, 0);"/>
    <path d="M18.3 11.7a6.6 6.6 0 00-6.4 0 .5.5 0 10.5.8c1.6-.9 3.8-.9 5.4 0l.3.1a.5.5 0 00.2-1M25 15a1.2 1.2 0 100 2.5 1.2 1.2 0 000-2.4" style="stroke: rgb(176, 54, 0); fill: rgb(176, 54, 0);"/>
  </g>
</svg>