<?xml version="1.0" encoding="utf-8"?>
<svg width="21" height="19" xmlns="http://www.w3.org/2000/svg">
  <defs>
    <path id="a" d="M0 5a5 5 0 015-5h11a5 5 0 015 5v5a5 5 0 01-5 5h-3.5L5 18.7 5 15a5 5 0 01-5-5V5z"/>
    <mask id="b" width="21" height="18.656" x="0" y="0" fill="#fff">
      <path d="M0 5a5 5 0 015-5h11a5 5 0 015 5v5a5 5 0 01-5 5h-3.5L5 18.7 5 15a5 5 0 01-5-5V5z" transform="matrix(1, 0, 0, 1, 0, 0)"/>
    </mask>
  </defs>
  <g fill="none" fill-rule="evenodd">
    <path d="M0 5a5 5 0 015-5h11a5 5 0 015 5v5a5 5 0 01-5 5h-3.5L5 18.7 5 15a5 5 0 01-5-5V5z" transform="matrix(1, 0, 0, 1, 0, 0)" stroke-width="4" mask="url(#b)" style="fill-rule: nonzero; stroke: rgb(176, 54, 0);"/>
    <path d="M9.3 7.5a1.2 1.2 0 112.4 0 1.2 1.2 0 11-2.4 0zm-4 0a1.2 1.2 0 112.4 0 1.2 1.2 0 11-2.4 0zm8 0a1.2 1.2 0 112.4 0 1.2 1.2 0 11-2.4 0z" style="fill-rule: nonzero; stroke: rgb(176, 54, 0);"/>
  </g>
</svg>